{"title":"Valhalla.Rising.2009.BRRIP.720P.H264-ZEKTORM","uid":5575688,"size":1573768029,"categoryP":"video","categoryS":"hd___movies","magnet":"?xt=urn:btih:9f644f0adc1d6c569b6b4ba6ce3e593aa95e62b3&amp;dn=Valhalla.Rising.2009.BRRIP.720P.H264-ZEKTORM&amp;tr=udp%3A%2F%2Ftracker.openbittorrent.com%3A80&amp;tr=udp%3A%2F%2Fopen.demonii.com%3A1337&amp;tr=udp%3A%2F%2Ftracker.coppersurfer.tk%3A6969&amp;tr=udp%3A%2F%2Fexodus.desync.com%3A6969","seeders":0,"leechers":0,"uploader":"blowley","files":4,"time":1274378543,"description":"Title                            : Valhalla Rising\nYear                             : 2009\nGenre                            : Action | Adventure\niMDB URL                         : http://www.imdb.com/title/tt0862467/\nAwards                           : 2 wins\n\nComplete name                    : Valhalla.Rising.2009.BRRIP.720P.H264-ZEKTORM.mp4\nFormat                           : MPEG-4\nFormat profile                   : Base Media\nCodec ID                         : isom\nFile size                        : 1.47 GiB\nDuration                         : 1h 32mn\nOverall bit rate                 : 2262 Kbps\nSubtitles                        : English (Format: srt)\n\nVideo\nID                               : 1\nFormat                           : AVC\nFormat/Info                      : Advanced Video Codec\nFormat profile                   : &lt;a class=&quot;__cf_email__&quot; href=&quot;/cdn-cgi/l/email-protection&quot; data-cfemail=&quot;1d55747a755d5129332d&quot;&gt;[email&amp;#160;protected]&lt;/a&gt;&lt;script cf-hash='f9e31' type=&quot;text/javascript&quot;&gt;\n/* &lt;![CDATA[ */!function(){try{var t=&quot;currentScript&quot;in document?document.currentScript:function(){for(var t=document.getElementsByTagName(&quot;script&quot;),e=t.length;e--;)if(t[e].getAttribute(&quot;cf-hash&quot;))return t[e]}();if(t&amp;&amp;t.previousSibling){var e,r,n,i,c=t.previousSibling,a=c.getAttribute(&quot;data-cfemail&quot;);if(a){for(e=&quot;&quot;,r=parseInt(a.substr(0,2),16),n=2;a.length-n;n+=2)i=parseInt(a.substr(n,2),16)^r,e+=String.fromCharCode(i);e=document.createTextNode(e),c.parentNode.replaceChild(e,c)}}}catch(u){}}();/* ]]&gt; */&lt;/script&gt;\nFormat settings, CABAC           : Yes\nFormat settings, ReFrames        : 4 frames\nCodec ID                         : avc1\nCodec ID/Info                    : Advanced Video Coding\nDuration                         : 1h 32mn\nBit rate mode                    : Variable\nBit rate                         : 1989 Kbps\nWidth                            : 1280 pixels\nHeight                           : 544 pixels\nDisplay aspect ratio             : 2.35\nFrame rate mode                  : Constant\nFrame rate                       : 23.976 fps\nResolution                       : 24 bits\nColorimetry                      : 4:2:0\nScan type                        : Progressive\nBits/(Pixel*Frame)               : 0.119\nStream size                      : 1.29 GiB (88%)\nTitle                            : Video\nWriting library                  : x264\n\nAudio #1\nID                               : 2\nFormat                           : AAC\nFormat/Info                      : Advanced Audio Codec\nFormat version                   : Version 4\nFormat profile                   : LC\nFormat settings, SBR             : Yes\nFormat settings, PS              : No\nCodec ID                         : 40\nDuration                         : 1h 32mn\nBit rate mode                    : Variable\nBit rate                         : 192 Kbps\nMaximum bit rate                 : 246 Kbps\nChannel(s)                       : 6 channels\nChannel positions                : Front: L C R, Rear: L R, LFE\nSampling rate                    : 48.0 KHz\nResolution                       : 16 bits\nStream size                      : 125 MiB (8%)\nTitle                            : English\nLanguage                         : English\n\nAudio #2\nID                               : 3\nFormat                           : AAC\nFormat/Info                      : Advanced Audio Codec\nFormat version                   : Version 4\nFormat profile                   : LC\nFormat settings, SBR             : Yes\nFormat settings, PS              : No\nCodec ID                         : 40\nDuration                         : 1h 32mn\nBit rate mode                    : Variable\nBit rate                         : 80.1 Kbps\nMaximum bit rate                 : 107 Kbps\nChannel(s)                       : 2 channels\nChannel positions                : L R\nSampling rate                    : 48.0 KHz\nResolution                       : 16 bits\nStream size                      : 53.2 MiB (4%)\nLanguage                         : English\n","torrent":{"xt":"urn:btih:9f644f0adc1d6c569b6b4ba6ce3e593aa95e62b3","amp;dn":"Valhalla.Rising.2009.BRRIP.720P.H264-ZEKTORM","amp;tr":["udp%3A%2F%2Ftracker.openbittorrent.com%3A80","udp%3A%2F%2Fopen.demonii.com%3A1337","udp%3A%2F%2Ftracker.coppersurfer.tk%3A6969","udp%3A%2F%2Fexodus.desync.com%3A6969"],"infoHash":"9f644f0adc1d6c569b6b4ba6ce3e593aa95e62b3","infoHashBuffer":{"type":"Buffer","data":[159,100,79,10,220,29,108,86,155,107,75,166,206,62,89,58,169,94,98,179]},"announce":[],"urlList":[]}}